# xmcd
#
# Track frame offsets: 
#        150
#        26854
#        45959
#        62338
#        84421
#        104427
#        122088
#        144658
#        177129
#        197341
#        214807
#        232104
#        250065
#        265968
#        283780
#        305422
#        327787
#
# Disc length: 4603 seconds
#
# Revision: 12
# Processed by: cddbd v1.5PL3 Copyright (c) Steve Scherf et al.
# Submitted via: ExactAudioCopy v0.95a5
#
DISCID=ee11f911
DTITLE=Sting - Fields Of Gold - The Best Of Sting 1984-1994
DYEAR=1994
DGENRE=Classic Rock
TTITLE0=When We Dance
TTITLE1=If You Love Somebody Set Them Free
TTITLE2=Fields Of Gold
TTITLE3=All This Time
TTITLE4=Englishman In New York
TTITLE5=Mad About You
TTITLE6=It's Probably Me
TTITLE7=They Dance Alone (Cueca Solo)
TTITLE8=If I Ever Lose My Faith In You
TTITLE9=Fragile
TTITLE10=We'll Be Together
TTITLE11=Moon Over Bourbon Street
TTITLE12=Love Is The Seventh Wave
TTITLE13=Russians
TTITLE14=Why Should I Cry For You?
TTITLE15=This Cowboy Song
TTITLE16=Muoio Per Te
EXTD=
EXTT0=
EXTT1=
EXTT2=
EXTT3=
EXTT4=
EXTT5=
EXTT6=
EXTT7=
EXTT8=
EXTT9=
EXTT10=
EXTT11=
EXTT12=
EXTT13=
EXTT14=
EXTT15=
EXTT16=
PLAYORDER=
